<svg xmlns="http://www.w3.org/2000/svg" xmlns:xlink="http://www.w3.org/1999/xlink" viewBox="0 0 1440 900"><defs><style>.cls-1{fill:none;}.cls-2{isolation:isolate;}.cls-3{clip-path:url(#clip-path);}.cls-4{fill:url(#linear-gradient);}.cls-10,.cls-11,.cls-12,.cls-13,.cls-14,.cls-15,.cls-16,.cls-17,.cls-18,.cls-19,.cls-20,.cls-21,.cls-22,.cls-23,.cls-24,.cls-25,.cls-26,.cls-27,.cls-28,.cls-29,.cls-30,.cls-31,.cls-32,.cls-33,.cls-34,.cls-35,.cls-36,.cls-37,.cls-38,.cls-39,.cls-40,.cls-41,.cls-42,.cls-43,.cls-44,.cls-45,.cls-46,.cls-47,.cls-48,.cls-49,.cls-5,.cls-50,.cls-51,.cls-52,.cls-53,.cls-54,.cls-55,.cls-56,.cls-57,.cls-58,.cls-59,.cls-6,.cls-60,.cls-61,.cls-62,.cls-63,.cls-64,.cls-65,.cls-66,.cls-67,.cls-68,.cls-69,.cls-7,.cls-70,.cls-71,.cls-72,.cls-73,.cls-74,.cls-75,.cls-76,.cls-77,.cls-78,.cls-79,.cls-8,.cls-80,.cls-81,.cls-82,.cls-83,.cls-84,.cls-85,.cls-86,.cls-87,.cls-88,.cls-9{mix-blend-mode:soft-light;}.cls-5{fill:url(#linear-gradient-2);}.cls-6{fill:url(#linear-gradient-3);}.cls-7{fill:url(#linear-gradient-4);}.cls-8{fill:url(#linear-gradient-5);}.cls-9{fill:url(#linear-gradient-6);}.cls-10{fill:url(#linear-gradient-7);}.cls-11{fill:url(#linear-gradient-8);}.cls-12{fill:url(#linear-gradient-9);}.cls-13{fill:url(#linear-gradient-10);}.cls-14{fill:url(#linear-gradient-11);}.cls-15{fill:url(#linear-gradient-12);}.cls-16{fill:url(#linear-gradient-13);}.cls-17{fill:url(#linear-gradient-14);}.cls-18{fill:url(#linear-gradient-15);}.cls-19{fill:url(#linear-gradient-16);}.cls-20{fill:url(#linear-gradient-17);}.cls-21{fill:url(#linear-gradient-18);}.cls-22{fill:url(#linear-gradient-19);}.cls-23{fill:url(#linear-gradient-20);}.cls-24{fill:url(#linear-gradient-21);}.cls-25{fill:url(#linear-gradient-22);}.cls-26{fill:url(#linear-gradient-23);}.cls-27{fill:url(#linear-gradient-24);}.cls-28{fill:url(#linear-gradient-25);}.cls-29{fill:url(#linear-gradient-26);}.cls-30{fill:url(#linear-gradient-27);}.cls-31{fill:url(#linear-gradient-28);}.cls-32{fill:url(#linear-gradient-29);}.cls-33{fill:url(#linear-gradient-30);}.cls-34{fill:url(#linear-gradient-31);}.cls-35{fill:url(#linear-gradient-32);}.cls-36{fill:url(#linear-gradient-33);}.cls-37{fill:url(#linear-gradient-34);}.cls-38{fill:url(#linear-gradient-35);}.cls-39{fill:url(#linear-gradient-36);}.cls-40{fill:url(#linear-gradient-37);}.cls-41{fill:url(#linear-gradient-38);}.cls-42{fill:url(#linear-gradient-39);}.cls-43{fill:url(#linear-gradient-40);}.cls-44{fill:url(#linear-gradient-41);}.cls-45{fill:url(#linear-gradient-42);}.cls-46{fill:url(#linear-gradient-43);}.cls-47{fill:url(#linear-gradient-44);}.cls-48{fill:url(#linear-gradient-45);}.cls-49{fill:url(#linear-gradient-46);}.cls-50{fill:url(#linear-gradient-47);}.cls-51{fill:url(#linear-gradient-48);}.cls-52{fill:url(#linear-gradient-49);}.cls-53{fill:url(#linear-gradient-50);}.cls-54{fill:url(#linear-gradient-51);}.cls-55{fill:url(#linear-gradient-52);}.cls-56{fill:url(#linear-gradient-53);}.cls-57{fill:url(#linear-gradient-54);}.cls-58{fill:url(#linear-gradient-55);}.cls-59{fill:url(#linear-gradient-56);}.cls-60{fill:url(#linear-gradient-57);}.cls-61{fill:url(#linear-gradient-58);}.cls-62{fill:url(#linear-gradient-59);}.cls-63{fill:url(#linear-gradient-60);}.cls-64{fill:url(#linear-gradient-61);}.cls-65{fill:url(#linear-gradient-62);}.cls-66{fill:url(#linear-gradient-63);}.cls-67{fill:url(#linear-gradient-64);}.cls-68{fill:url(#linear-gradient-65);}.cls-69{fill:url(#linear-gradient-66);}.cls-70{fill:url(#linear-gradient-67);}.cls-71{fill:url(#linear-gradient-68);}.cls-72{fill:url(#linear-gradient-69);}.cls-73{fill:url(#linear-gradient-70);}.cls-74{fill:url(#linear-gradient-71);}.cls-75{fill:url(#linear-gradient-72);}.cls-76{fill:url(#linear-gradient-73);}.cls-77{fill:url(#linear-gradient-74);}.cls-78{fill:url(#linear-gradient-75);}.cls-79{fill:url(#linear-gradient-76);}.cls-80{fill:url(#linear-gradient-77);}.cls-81{fill:url(#linear-gradient-78);}.cls-82{fill:url(#linear-gradient-79);}.cls-83{fill:url(#linear-gradient-80);}.cls-84{fill:url(#linear-gradient-81);}.cls-85{fill:url(#linear-gradient-82);}.cls-86{fill:url(#linear-gradient-83);}.cls-87{fill:url(#linear-gradient-84);}.cls-88{fill:url(#linear-gradient-85);}.cls-89{fill:#ff0090;mix-blend-mode:difference;}</style><clipPath id="clip-path"><rect class="cls-1" width="1440" height="900"/></clipPath><linearGradient id="linear-gradient" x1="129.14" y1="1040.86" x2="1310.86" y2="-140.85" gradientUnits="userSpaceOnUse"><stop offset="0" stop-color="#2600ff"/><stop offset="0.53" stop-color="#127eff"/><stop offset="1" stop-color="#00eaff"/></linearGradient><linearGradient id="linear-gradient-2" x1="963.83" y1="664.68" x2="963.83" y2="38.21" gradientTransform="translate(426.23 -449.17) rotate(45)" gradientUnits="userSpaceOnUse"><stop offset="0" stop-color="#00eaff"/><stop offset="0.47" stop-color="#637eff"/><stop offset="1" stop-color="#d500ff"/></linearGradient><linearGradient id="linear-gradient-3" x1="1029.6" y1="779.65" x2="1029.6" y2="153.17" xlink:href="#linear-gradient-2"/><linearGradient id="linear-gradient-4" x1="1153.93" y1="640.84" x2="1153.93" y2="14.36" gradientTransform="translate(426.23 -449.17) rotate(45)" gradientUnits="userSpaceOnUse"><stop offset="0" stop-color="#00eaff"/><stop offset="0.1" stop-color="#1bccff"/><stop offset="0.35" stop-color="#5c84ff"/><stop offset="0.57" stop-color="#904cff"/><stop offset="0.76" stop-color="#b622ff"/><stop offset="0.91" stop-color="#cd09ff"/><stop offset="1" stop-color="#d500ff"/></linearGradient><linearGradient id="linear-gradient-5" x1="1273.41" y1="523.15" x2="1273.41" y2="-103.31" gradientTransform="translate(426.23 -449.17) rotate(45)" gradientUnits="userSpaceOnUse"><stop offset="0" stop-color="#00eaff"/><stop offset="0.01" stop-color="#03e7ff"/><stop offset="0.12" stop-color="#34b1ff"/><stop offset="0.23" stop-color="#5f82ff"/><stop offset="0.35" stop-color="#835aff"/><stop offset="0.47" stop-color="#a139ff"/><stop offset="0.59" stop-color="#b820ff"/><stop offset="0.71" stop-color="#c80eff"/><stop offset="0.85" stop-color="#d203ff"/><stop offset="1" stop-color="#d500ff"/></linearGradient><linearGradient id="linear-gradient-6" x1="1312.35" y1="754.44" x2="1312.35" y2="127.98" xlink:href="#linear-gradient-2"/><linearGradient id="linear-gradient-7" x1="1458.65" y1="520.46" x2="1458.65" y2="-106.02" xlink:href="#linear-gradient-2"/><linearGradient id="linear-gradient-8" x1="1521.18" y1="649.51" x2="1521.18" y2="23.05" xlink:href="#linear-gradient-2"/><linearGradient id="linear-gradient-9" x1="1635.77" y1="553.01" x2="1635.77" y2="-73.48" xlink:href="#linear-gradient-2"/><linearGradient id="linear-gradient-10" x1="1760.92" y1="410.66" x2="1760.92" y2="-215.82" xlink:href="#linear-gradient-2"/><linearGradient id="linear-gradient-11" x1="1825.18" y1="532.15" x2="1825.18" y2="-94.31" xlink:href="#linear-gradient-2"/><linearGradient id="linear-gradient-12" x1="1938.82" y1="439.68" x2="1938.82" y2="-186.79" xlink:href="#linear-gradient-2"/><linearGradient id="linear-gradient-13" x1="-317.82" y1="706.75" x2="-317.82" y2="80.3" gradientTransform="matrix(-0.71, -0.71, -0.71, 0.71, 1398.32, 522.91)" xlink:href="#linear-gradient-5"/><linearGradient id="linear-gradient-14" x1="-113.06" y1="794.04" x2="-113.06" y2="167.6" gradientTransform="matrix(-0.71, -0.71, -0.71, 0.71, 1398.32, 522.91)" xlink:href="#linear-gradient-2"/><linearGradient id="linear-gradient-15" x1="19.41" y1="968.11" x2="19.41" y2="341.65" gradientTransform="matrix(-0.71, -0.71, -0.71, 0.71, 1398.32, 522.91)" xlink:href="#linear-gradient-2"/><linearGradient id="linear-gradient-16" x1="99.84" y1="916.6" x2="99.84" y2="290.12" gradientTransform="matrix(-0.71, -0.71, -0.71, 0.71, 1398.32, 522.91)" xlink:href="#linear-gradient-2"/><linearGradient id="linear-gradient-17" x1="169.68" y1="819.25" x2="169.68" y2="192.79" gradientTransform="matrix(-0.71, -0.71, -0.71, 0.71, 1398.32, 522.91)" xlink:href="#linear-gradient-2"/><linearGradient id="linear-gradient-18" x1="300.4" y1="985.73" x2="300.4" y2="359.28" gradientTransform="matrix(-0.71, -0.71, -0.71, 0.71, 1398.32, 522.91)" xlink:href="#linear-gradient-2"/><linearGradient id="linear-gradient-19" x1="381.76" y1="938.28" x2="381.76" y2="311.82" gradientTransform="matrix(-0.71, -0.71, -0.71, 0.71, 1398.32, 522.91)" xlink:href="#linear-gradient-2"/><linearGradient id="linear-gradient-20" x1="517.37" y1="1125.91" x2="517.37" y2="499.43" gradientTransform="matrix(-0.71, -0.71, -0.71, 0.71, 1398.32, 522.91)" xlink:href="#linear-gradient-2"/><linearGradient id="linear-gradient-21" x1="855.93" y1="1132.23" x2="855.93" y2="505.74" xlink:href="#linear-gradient-2"/><linearGradient id="linear-gradient-22" x1="921.72" y1="1247.19" x2="921.72" y2="620.71" xlink:href="#linear-gradient-2"/><linearGradient id="linear-gradient-23" x1="1046.06" y1="1108.37" x2="1046.06" y2="481.91" xlink:href="#linear-gradient-4"/><linearGradient id="linear-gradient-24" x1="1165.51" y1="990.69" x2="1165.51" y2="364.23" xlink:href="#linear-gradient-5"/><linearGradient id="linear-gradient-25" x1="1204.46" y1="1221.98" x2="1204.46" y2="595.5" xlink:href="#linear-gradient-2"/><linearGradient id="linear-gradient-26" x1="1356.15" y1="964.58" x2="1356.15" y2="338.14" xlink:href="#linear-gradient-2"/><linearGradient id="linear-gradient-27" x1="-37.85" y1="392.11" x2="-37.85" y2="-234.37" gradientTransform="matrix(-0.71, -0.71, -0.71, 0.71, 1582.36, 706.95)" xlink:href="#linear-gradient-2"/><linearGradient id="linear-gradient-28" x1="10.84" y1="203.11" x2="10.84" y2="-423.36" gradientTransform="matrix(-0.71, -0.71, -0.71, 0.71, 1582.36, 706.95)" xlink:href="#linear-gradient-2"/><linearGradient id="linear-gradient-29" x1="140.62" y1="365.49" x2="140.62" y2="-260.99" gradientTransform="matrix(-0.71, -0.71, -0.71, 0.71, 1582.36, 706.95)" xlink:href="#linear-gradient-2"/><linearGradient id="linear-gradient-30" x1="223.75" y1="325.67" x2="223.75" y2="-300.79" gradientTransform="matrix(-0.71, -0.71, -0.71, 0.71, 1582.36, 706.95)" xlink:href="#linear-gradient-2"/><linearGradient id="linear-gradient-31" x1="293.59" y1="228.32" x2="293.59" y2="-398.16" gradientTransform="matrix(-0.71, -0.71, -0.71, 0.71, 1582.36, 706.95)" xlink:href="#linear-gradient-2"/><linearGradient id="linear-gradient-32" x1="413.05" y1="345.98" x2="413.05" y2="-280.46" gradientTransform="matrix(-0.71, -0.71, -0.71, 0.71, 1582.36, 706.95)" gradientUnits="userSpaceOnUse"><stop offset="0" stop-color="#00eaff"/><stop offset="0.17" stop-color="#30b6ff"/><stop offset="0.39" stop-color="#6a76ff"/><stop offset="0.59" stop-color="#9843ff"/><stop offset="0.77" stop-color="#b91eff"/><stop offset="0.91" stop-color="#ce08ff"/><stop offset="1" stop-color="#d500ff"/></linearGradient><linearGradient id="linear-gradient-33" x1="537.4" y1="484.82" x2="537.4" y2="-141.66" gradientTransform="matrix(-0.71, -0.71, -0.71, 0.71, 1582.36, 706.95)" xlink:href="#linear-gradient-2"/><linearGradient id="linear-gradient-34" x1="613.75" y1="415.66" x2="613.75" y2="-210.79" gradientTransform="matrix(-0.71, -0.71, -0.71, 0.71, 1582.36, 706.95)" gradientUnits="userSpaceOnUse"><stop offset="0" stop-color="#00eaff"/><stop offset="0.04" stop-color="#0adfff"/><stop offset="0.31" stop-color="#5191ff"/><stop offset="0.55" stop-color="#8a53ff"/><stop offset="0.75" stop-color="#b326ff"/><stop offset="0.91" stop-color="#cc0aff"/><stop offset="1" stop-color="#d500ff"/></linearGradient><linearGradient id="linear-gradient-35" x1="1087.43" y1="129.01" x2="1087.43" y2="-497.46" xlink:href="#linear-gradient-2"/><linearGradient id="linear-gradient-36" x1="1288.27" y1="58.72" x2="1288.27" y2="-567.75" xlink:href="#linear-gradient-2"/><linearGradient id="linear-gradient-37" x1="1541.87" y1="159.78" x2="1541.87" y2="-466.68" xlink:href="#linear-gradient-2"/><linearGradient id="linear-gradient-38" x1="151.76" y1="13.74" x2="151.76" y2="-612.75" gradientTransform="matrix(-0.71, -0.71, -0.71, 0.71, 1582.36, 706.95)" xlink:href="#linear-gradient-2"/><linearGradient id="linear-gradient-39" x1="463.93" y1="166.44" x2="463.93" y2="-460.01" gradientTransform="matrix(-0.71, -0.71, -0.71, 0.71, 1582.36, 706.95)" xlink:href="#linear-gradient-2"/><linearGradient id="linear-gradient-40" x1="-213.15" y1="966.38" x2="-213.15" y2="339.91" xlink:href="#linear-gradient-2"/><linearGradient id="linear-gradient-41" x1="-147.39" y1="1081.34" x2="-147.39" y2="454.87" xlink:href="#linear-gradient-2"/><linearGradient id="linear-gradient-42" x1="-23.04" y1="942.53" x2="-23.04" y2="316.07" xlink:href="#linear-gradient-4"/><linearGradient id="linear-gradient-43" x1="96.43" y1="824.86" x2="96.43" y2="198.39" xlink:href="#linear-gradient-5"/><linearGradient id="linear-gradient-44" x1="135.36" y1="1056.14" x2="135.36" y2="429.69" xlink:href="#linear-gradient-2"/><linearGradient id="linear-gradient-45" x1="281.66" y1="822.16" x2="281.66" y2="195.68" xlink:href="#linear-gradient-2"/><linearGradient id="linear-gradient-46" x1="344.19" y1="951.21" x2="344.19" y2="324.75" xlink:href="#linear-gradient-2"/><linearGradient id="linear-gradient-47" x1="458.79" y1="854.71" x2="458.79" y2="228.23" xlink:href="#linear-gradient-2"/><linearGradient id="linear-gradient-48" x1="583.93" y1="712.34" x2="583.93" y2="85.89" xlink:href="#linear-gradient-2"/><linearGradient id="linear-gradient-49" x1="648.2" y1="833.85" x2="648.2" y2="207.39" xlink:href="#linear-gradient-2"/><linearGradient id="linear-gradient-50" x1="761.84" y1="741.38" x2="761.84" y2="114.91" xlink:href="#linear-gradient-2"/><linearGradient id="linear-gradient-51" x1="821.24" y1="884.01" x2="821.24" y2="257.55" xlink:href="#linear-gradient-2"/><linearGradient id="linear-gradient-52" x1="583.74" y1="1014.98" x2="583.74" y2="388.51" gradientTransform="matrix(-0.71, -0.71, -0.71, 0.71, 1398.32, 522.91)" xlink:href="#linear-gradient-2"/><linearGradient id="linear-gradient-53" x1="712.96" y1="1174.95" x2="712.96" y2="548.47" gradientTransform="matrix(-0.71, -0.71, -0.71, 0.71, 1398.32, 522.91)" xlink:href="#linear-gradient-2"/><linearGradient id="linear-gradient-54" x1="783.62" y1="1081.12" x2="783.62" y2="454.67" gradientTransform="matrix(-0.71, -0.71, -0.71, 0.71, 1398.32, 522.91)" xlink:href="#linear-gradient-4"/><linearGradient id="linear-gradient-55" x1="859.17" y1="1008.45" x2="859.17" y2="381.99" gradientTransform="matrix(-0.71, -0.71, -0.71, 0.71, 1398.32, 522.91)" xlink:href="#linear-gradient-5"/><linearGradient id="linear-gradient-56" x1="1023.32" y1="1319.84" x2="1023.32" y2="693.38" gradientTransform="matrix(-0.71, -0.71, -0.71, 0.71, 1398.32, 522.91)" xlink:href="#linear-gradient-2"/><linearGradient id="linear-gradient-57" x1="1063.93" y1="1095.75" x2="1063.93" y2="469.3" gradientTransform="matrix(-0.71, -0.71, -0.71, 0.71, 1398.32, 522.91)" xlink:href="#linear-gradient-2"/><linearGradient id="linear-gradient-58" x1="1196.39" y1="1269.81" x2="1196.39" y2="643.35" gradientTransform="matrix(-0.71, -0.71, -0.71, 0.71, 1398.32, 522.91)" xlink:href="#linear-gradient-2"/><linearGradient id="linear-gradient-59" x1="1276.82" y1="1218.31" x2="1276.82" y2="591.83" gradientTransform="matrix(-0.71, -0.71, -0.71, 0.71, 1398.32, 522.91)" xlink:href="#linear-gradient-2"/><linearGradient id="linear-gradient-60" x1="1346.67" y1="1120.96" x2="1346.67" y2="494.5" gradientTransform="matrix(-0.71, -0.71, -0.71, 0.71, 1398.32, 522.91)" xlink:href="#linear-gradient-2"/><linearGradient id="linear-gradient-61" x1="-11.46" y1="1292.38" x2="-11.46" y2="665.94" xlink:href="#linear-gradient-5"/><linearGradient id="linear-gradient-62" x1="179.17" y1="1266.29" x2="179.17" y2="639.84" xlink:href="#linear-gradient-2"/><linearGradient id="linear-gradient-63" x1="236.3" y1="1418.73" x2="236.3" y2="792.29" xlink:href="#linear-gradient-2"/><linearGradient id="linear-gradient-64" x1="476.04" y1="1179.88" x2="476.04" y2="553.42" xlink:href="#linear-gradient-2"/><linearGradient id="linear-gradient-65" x1="540.32" y1="1301.37" x2="540.32" y2="674.9" xlink:href="#linear-gradient-2"/><linearGradient id="linear-gradient-66" x1="653.96" y1="1208.91" x2="653.96" y2="582.45" xlink:href="#linear-gradient-2"/><linearGradient id="linear-gradient-67" x1="713.34" y1="1351.56" x2="713.34" y2="725.08" xlink:href="#linear-gradient-2"/><linearGradient id="linear-gradient-68" x1="749.13" y1="603.8" x2="749.13" y2="-22.65" gradientTransform="matrix(-0.71, -0.71, -0.71, 0.71, 1582.36, 706.95)" xlink:href="#linear-gradient-2"/><linearGradient id="linear-gradient-69" x1="815.72" y1="492.36" x2="815.72" y2="-134.1" gradientTransform="matrix(-0.71, -0.71, -0.71, 0.71, 1582.36, 706.95)" xlink:href="#linear-gradient-2"/><linearGradient id="linear-gradient-70" x1="930.31" y1="588.87" x2="930.31" y2="-37.58" gradientTransform="matrix(-0.71, -0.71, -0.71, 0.71, 1582.36, 706.95)" xlink:href="#linear-gradient-2"/><linearGradient id="linear-gradient-71" x1="1005.01" y1="512.68" x2="1005.01" y2="-113.79" gradientTransform="matrix(-0.71, -0.71, -0.71, 0.71, 1582.36, 706.95)" gradientUnits="userSpaceOnUse"><stop offset="0" stop-color="#00eaff"/><stop offset="0.12" stop-color="#22c4ff"/><stop offset="0.36" stop-color="#617fff"/><stop offset="0.58" stop-color="#9348ff"/><stop offset="0.76" stop-color="#b721ff"/><stop offset="0.91" stop-color="#cd09ff"/><stop offset="1" stop-color="#d500ff"/></linearGradient><linearGradient id="linear-gradient-72" x1="1139.12" y1="693.8" x2="1139.12" y2="67.32" gradientTransform="matrix(-0.71, -0.71, -0.71, 0.71, 1582.36, 706.95)" xlink:href="#linear-gradient-2"/><linearGradient id="linear-gradient-73" x1="1187.83" y1="504.82" x2="1187.83" y2="-121.65" gradientTransform="matrix(-0.71, -0.71, -0.71, 0.71, 1582.36, 706.95)" xlink:href="#linear-gradient-2"/><linearGradient id="linear-gradient-74" x1="1317.61" y1="667.18" x2="1317.61" y2="40.72" gradientTransform="matrix(-0.71, -0.71, -0.71, 0.71, 1582.36, 706.95)" xlink:href="#linear-gradient-2"/><linearGradient id="linear-gradient-75" x1="1400.73" y1="627.36" x2="1400.73" y2="0.91" gradientTransform="matrix(-0.71, -0.71, -0.71, 0.71, 1582.36, 706.95)" xlink:href="#linear-gradient-2"/><linearGradient id="linear-gradient-76" x1="1470.56" y1="530.01" x2="1470.56" y2="-96.45" gradientTransform="matrix(-0.71, -0.71, -0.71, 0.71, 1582.36, 706.95)" xlink:href="#linear-gradient-2"/><linearGradient id="linear-gradient-77" x1="1714.38" y1="786.51" x2="1714.38" y2="160.05" gradientTransform="matrix(-0.71, -0.71, -0.71, 0.71, 1582.36, 706.95)" xlink:href="#linear-gradient-2"/><linearGradient id="linear-gradient-78" x1="364.9" y1="461.47" x2="364.9" y2="-164.99" xlink:href="#linear-gradient-2"/><linearGradient id="linear-gradient-79" x1="707.55" y1="176.67" x2="707.55" y2="-449.8" xlink:href="#linear-gradient-2"/><linearGradient id="linear-gradient-80" x1="512.54" y1="221.69" x2="512.54" y2="-404.78" xlink:href="#linear-gradient-2"/><linearGradient id="linear-gradient-81" x1="700.33" y1="392.31" x2="700.33" y2="-234.16" gradientTransform="matrix(-0.71, -0.71, -0.71, 0.71, 1582.36, 706.95)" xlink:href="#linear-gradient-2"/><linearGradient id="linear-gradient-82" x1="753.63" y1="223.33" x2="753.63" y2="-403.14" gradientTransform="matrix(-0.71, -0.71, -0.71, 0.71, 1582.36, 706.95)" xlink:href="#linear-gradient-2"/><linearGradient id="linear-gradient-83" x1="872.14" y1="336.87" x2="872.14" y2="-289.59" gradientTransform="matrix(-0.71, -0.71, -0.71, 0.71, 1582.36, 706.95)" xlink:href="#linear-gradient-2"/><linearGradient id="linear-gradient-84" x1="1055.9" y1="333.13" x2="1055.9" y2="-293.34" gradientTransform="matrix(-0.71, -0.71, -0.71, 0.71, 1582.36, 706.95)" xlink:href="#linear-gradient-2"/><linearGradient id="linear-gradient-85" x1="1000.04" y1="109.18" x2="1000.04" y2="-517.28" xlink:href="#linear-gradient-2"/></defs><title>画板 1</title><g class="cls-2"><g id="图层_1" data-name="图层 1"><g id="Cover_3"><g class="cls-3"><rect class="cls-4" x="-7.21" y="-4.5" width="1454.41" height="909.01"/><path class="cls-5" d="M672.61,650.52c-23.45,14.66-61.42,14.66-84.83,0h0c-23.45-14.64-23.45-38.39,0-53l458.09-286.33c23.45-14.63,61.42-14.63,84.87,0h0c23.41,14.66,23.45,38.39,0,53Z"/><path class="cls-6" d="M637.8,778.32c-23.41,14.66-61.38,14.68-84.8,0h0c-23.48-14.66-23.45-38.39,0-53L1011.09,439c23.41-14.64,61.38-14.64,84.87,0h0c23.41,14.64,23.41,38.36,0,53Z"/><path class="cls-7" d="M823.92,768.1c-23.45,14.66-61.45,14.66-84.87,0h0c-23.41-14.63-23.45-38.39,0-53l458.08-286.35c23.45-14.63,61.45-14.61,84.87,0h0c23.45,14.63,23.45,38.36,0,53Z"/><path class="cls-8" d="M991.58,769.37c-23.45,14.66-61.42,14.63-84.83,0h0c-23.45-14.63-23.45-38.38,0-53L1364.83,430c23.45-14.61,61.42-14.64,84.87,0h0c23.41,14.64,23.41,38.39,0,53Z"/><path class="cls-9" d="M855.56,960.42c-23.45,14.66-61.42,14.68-84.8,0h0c-23.48-14.66-23.45-38.41,0-53l458.08-286.35c23.41-14.64,61.38-14.64,84.83,0h0c23.41,14.64,23.45,38.36,0,53Z"/><path class="cls-10" d="M1124.47,898.44c-23.45,14.66-61.42,14.64-84.83,0h0c-23.45-14.66-23.45-38.39,0-53l458.09-286.35c23.45-14.63,61.42-14.63,84.89,0h0c23.41,14.63,23.41,38.38,0,53Z"/><path class="cls-11" d="M1077.43,1033.9c-23.45,14.66-61.42,14.66-84.83,0h0c-23.41-14.64-23.45-38.39,0-53l458.09-286.32c23.45-14.64,61.42-14.64,84.87,0h0c23.41,14.65,23.41,38.41,0,53Z"/><path class="cls-12" d="M1226.71,1046.69c-23.45,14.66-61.42,14.66-84.83,0h0c-23.48-14.63-23.45-38.38,0-53L1600,707.34c23.41-14.66,61.38-14.66,84.86,0h0c23.42,14.63,23.42,38.38,0,53Z"/><path class="cls-13" d="M1415.85,1034.52c-23.45,14.66-61.42,14.68-84.83,0h0c-23.45-14.66-23.45-38.39,0-53l458.1-286.35c23.41-14.64,61.38-14.64,84.86,0h0c23.42,14.64,23.42,38.36,0,53Z"/><path class="cls-14" d="M1375.38,1165.87c-23.41,14.66-61.42,14.66-84.83,0h0c-23.45-14.64-23.45-38.39,0-53l458.07-286.32c23.48-14.63,61.45-14.63,84.86,0h0c23.42,14.61,23.49,38.36,0,53Z"/><path class="cls-15" d="M1521.14,1180.85c-23.45,14.66-61.42,14.66-84.83,0h0c-23.45-14.64-23.45-38.39,0-53l458.07-286.33c23.48-14.63,61.45-14.63,84.86,0h0c23.42,14.64,23.42,38.36,0,53Z"/><path class="cls-16" d="M1073.28,1142.53c-23.41,14.66-23.41,38.41,0,53h0c23.41,14.68,61.42,14.68,84.8,0l458.17-286.3c23.42-14.66,23.42-38.41-.07-53h0c-23.34-14.63-61.36-14.66-84.81,0Z"/><path class="cls-17" d="M866.78,1059.48c-23.41,14.66-23.41,38.41,0,53h0c23.41,14.68,61.42,14.68,84.8,0l458.16-286.3c23.41-14.68,23.41-38.38,0-53h0c-23.41-14.66-61.38-14.66-84.83,0Z"/><path class="cls-18" d="M650,1088.9c-23.41,14.64-23.41,38.36,0,53h0c23.45,14.66,61.42,14.66,84.83,0L1193,855.62c23.45-14.66,23.45-38.39,0-53h0c-23.41-14.63-61.38-14.63-84.83,0Z"/><path class="cls-19" d="M629.61,995.6c-23.45,14.66-23.45,38.38,0,53h0c23.41,14.66,61.42,14.66,84.83,0l458.12-286.3c23.41-14.66,23.41-38.41,0-53h0c-23.41-14.63-61.42-14.63-84.83,0Z"/><path class="cls-20" d="M649.05,877.39c-23.45,14.64-23.45,38.39,0,53h0c23.41,14.66,61.42,14.68,84.83,0L1192,644.11c23.41-14.66,23.41-38.41,0-53h0c-23.41-14.66-61.42-14.66-84.87,0Z"/><path class="cls-21" d="M438.89,902.68c-23.41,14.63-23.41,38.39,0,53h0c23.41,14.68,61.42,14.66,84.83,0l458.12-286.3c23.45-14.64,23.41-38.36,0-53h0c-23.41-14.66-61.38-14.66-84.83,0Z"/><path class="cls-22" d="M414.91,811.58c-23.41,14.63-23.41,38.39,0,53h0c23.45,14.66,61.45,14.66,84.87,0L957.9,578.3c23.41-14.66,23.41-38.38,0-53h0c-23.41-14.68-61.38-14.68-84.83,0Z"/><path class="cls-23" d="M186.36,848.37c-23.45,14.63-23.45,38.38,0,53h0c23.45,14.66,61.42,14.66,84.83,0l458.12-286.3c23.45-14.66,23.45-38.39,0-53h0c-23.41-14.61-61.42-14.63-84.83,0Z"/><path class="cls-24" d="M265.71,904.83c-23.41,14.66-61.42,14.66-84.83,0h0c-23.45-14.64-23.45-38.41,0-53L639,565.49c23.45-14.63,61.42-14.63,84.87,0h0c23.45,14.64,23.45,38.36,0,53Z"/><path class="cls-25" d="M230.94,1032.65c-23.41,14.63-61.42,14.63-84.83,0h0c-23.45-14.66-23.45-38.39,0-53L604.2,693.28c23.45-14.64,61.42-14.64,84.87,0h0c23.41,14.61,23.41,38.36,0,53Z"/><path class="cls-26" d="M417,1022.39c-23.45,14.66-61.38,14.68-84.87,0h0c-23.41-14.63-23.41-38.36,0-53L790.31,683c23.41-14.63,61.38-14.63,84.8,0h0c23.45,14.63,23.45,38.36,0,53Z"/><path class="cls-27" d="M584.72,1023.66c-23.45,14.66-61.42,14.66-84.87,0h0c-23.41-14.63-23.41-38.38,0-53L957.94,684.32c23.45-14.64,61.45-14.64,84.87,0h0c23.45,14.61,23.45,38.36,0,53Z"/><path class="cls-28" d="M448.7,1214.76c-23.45,14.64-61.42,14.64-84.83,0h0c-23.45-14.66-23.45-38.41,0-53L822,875.39c23.45-14.63,61.42-14.63,84.87,0h0c23.41,14.61,23.41,38.36,0,53Z"/><path class="cls-29" d="M738,1140c-23.45,14.66-61.42,14.66-84.83,0h0c-23.45-14.64-23.45-38.39,0-53l458.08-286.3c23.45-14.66,61.42-14.66,84.83,0h0c23.45,14.63,23.45,38.36,0,53Z"/><path class="cls-30" d="M1281.87,906.13c-23.41,14.66-23.41,38.39,0,53h0c23.41,14.66,61.45,14.66,84.87,0l458.1-286.3c23.42-14.66,23.42-38.38,0-53h0c-23.41-14.64-61.38-14.64-84.86,0Z"/><path class="cls-31" d="M1381.08,738.06c-23.45,14.66-23.41,38.39,0,53h0c23.45,14.66,61.45,14.66,84.83,0L1924,504.78c23.41-14.66,23.41-38.38,0-53h0c-23.42-14.64-61.45-14.64-84.87,0Z"/><path class="cls-32" d="M1174.5,761.09c-23.45,14.68-23.45,38.41,0,53h0c23.45,14.66,61.42,14.66,84.83,0l458.14-286.3c23.41-14.66,23.41-38.39,0-53h0c-23.42-14.63-61.46-14.63-84.87,0Z"/><path class="cls-33" d="M1143.88,674.16c-23.41,14.66-23.41,38.41,0,53h0c23.45,14.63,61.42,14.63,84.83,0l458.1-286.3c23.49-14.64,23.42-38.39,0-53h0c-23.41-14.63-61.38-14.63-84.79,0Z"/><path class="cls-34" d="M1163.32,556c-23.41,14.66-23.41,38.39,0,53h0c23.45,14.66,61.45,14.66,84.87,0l458.1-286.28c23.42-14.68,23.42-38.41,0-53.06h0c-23.41-14.64-61.38-14.64-84.87,0Z"/><path class="cls-35" d="M995.66,554.68c-23.45,14.66-23.45,38.39,0,53h0c23.45,14.66,61.42,14.66,84.83,0l458.12-286.28c23.45-14.66,23.41-38.38,0-53h0c-23.38-14.64-61.38-14.66-84.83,0Z"/><path class="cls-36" d="M809.58,564.92c-23.45,14.66-23.45,38.41,0,53h0c23.41,14.63,61.42,14.63,84.83,0l458.12-286.33c23.41-14.63,23.41-38.38,0-53h0c-23.41-14.63-61.42-14.66-84.87,0Z"/><path class="cls-37" d="M804.48,462c-23.45,14.63-23.45,38.39,0,53h0c23.45,14.66,61.42,14.66,84.83,0l458.12-286.33c23.41-14.66,23.45-38.36,0-53h0c-23.41-14.66-61.38-14.66-84.83,0Z"/><path class="cls-38" d="M1138.78,359.17c-23.41,14.66-61.38,14.63-84.83,0h0c-23.45-14.66-23.45-38.41,0-53L1512,19.82c23.45-14.63,61.44-14.66,84.85,0h0c23.49,14.64,23.49,38.39,0,53Z"/><path class="cls-39" d="M1330.52,451.47c-23.45,14.66-61.45,14.66-84.87,0h0c-23.41-14.63-23.45-38.41,0-53l458.1-286.35c23.41-14.61,61.45-14.61,84.86,0h0c23.42,14.63,23.42,38.38,0,53Z"/><path class="cls-40" d="M1438.38,702.25c-23.45,14.66-61.45,14.66-84.87,0h0c-23.41-14.64-23.45-38.39,0-53l458.1-286.32c23.41-14.63,61.45-14.63,84.87,0h0c23.41,14.63,23.41,38.36,0,53Z"/><path class="cls-41" d="M1415.35,504.52c-23.45,14.66-23.45,38.38,0,53h0c23.41,14.66,61.42,14.66,84.83,0l458.1-286.33c23.49-14.63,23.49-38.38,0-53h0c-23.41-14.66-61.38-14.63-84.79,0Z"/><path class="cls-42" d="M1086.64,391.77c-23.45,14.64-23.45,38.36,0,53h0c23.41,14.66,61.42,14.66,84.83,0l458.1-286.3c23.41-14.64,23.41-38.39,0-53h0c-23.42-14.66-61.4-14.66-84.82,0Z"/><path class="cls-43" d="M-373,31.62c-23.45,14.66-61.42,14.66-84.83,0h0c-23.45-14.66-23.45-38.39,0-53L.28-307.74c23.45-14.62,61.42-14.65,84.87,0h0c23.41,14.63,23.45,38.38,0,53Z"/><path class="cls-44" d="M-407.74,159.41c-23.45,14.66-61.42,14.66-84.83,0h0c-23.45-14.63-23.45-38.38,0-53L-34.49-179.93c23.45-14.63,61.42-14.63,84.87,0h0c23.41,14.62,23.41,38.35,0,53Z"/><path class="cls-45" d="M-221.66,149.19c-23.45,14.64-61.42,14.64-84.83,0h0c-23.45-14.66-23.48-38.41,0-53L151.6-190.17c23.41-14.63,61.42-14.63,84.83,0h0c23.45,14.65,23.45,38.38,0,53Z"/><path class="cls-46" d="M-54,150.45c-23.41,14.66-61.38,14.66-84.83,0h0c-23.45-14.64-23.45-38.39,0-53L319.25-188.9c23.45-14.63,61.42-14.63,84.87,0h0c23.45,14.63,23.45,38.37,0,53Z"/><path class="cls-47" d="M-190,341.52c-23.48,14.66-61.45,14.66-84.83,0h0c-23.48-14.63-23.45-38.38,0-53L183.27,2.18c23.41-14.64,61.42-14.64,84.83,0h0c23.41,14.61,23.45,38.36,0,53Z"/><path class="cls-48" d="M78.89,279.54c-23.41,14.64-61.42,14.64-84.83,0h0c-23.45-14.64-23.45-38.39,0-53L452.15-59.83c23.45-14.63,61.42-14.63,84.87,0h0c23.45,14.63,23.45,38.38,0,53Z"/><path class="cls-49" d="M31.85,415C8.44,429.65-29.57,429.65-53,415h0c-23.41-14.63-23.45-38.38,0-53L405.11,75.65C428.55,61,466.52,61,490,75.65h0c23.45,14.66,23.41,38.38,0,53Z"/><path class="cls-50" d="M181.12,427.78c-23.41,14.64-61.42,14.64-84.83,0h0c-23.45-14.66-23.45-38.38,0-53L554.38,88.42c23.45-14.63,61.42-14.63,84.87,0h0c23.41,14.61,23.45,38.36,0,53Z"/><path class="cls-51" d="M370.27,415.61c-23.45,14.66-61.38,14.66-84.8,0h0c-23.49-14.63-23.49-38.38,0-53L743.55,76.27c23.41-14.63,61.38-14.63,84.83,0h0c23.45,14.63,23.45,38.36,0,53Z"/><path class="cls-52" d="M329.84,547c-23.45,14.66-61.45,14.66-84.87,0h0c-23.45-14.66-23.41-38.39,0-53L703.05,207.62c23.45-14.66,61.42-14.66,84.87,0h0c23.41,14.61,23.45,38.36,0,53Z"/><path class="cls-53" d="M475.56,561.93c-23.45,14.66-61.42,14.68-84.83,0h0c-23.45-14.66-23.45-38.39,0-53L848.81,222.58c23.45-14.63,61.42-14.63,84.87,0h0c23.41,14.63,23.41,38.36,0,53Z"/><path class="cls-54" d="M416.71,704.79c-23.45,14.64-61.42,14.64-84.83,0h0c-23.45-14.63-23.45-38.38,0-53L790,365.45c23.45-14.64,61.42-14.64,84.83,0h0c23.45,14.63,23.45,38.36,0,53Z"/><path class="cls-55" d="M217.86,723c-23.41,14.63-23.41,38.38,0,53h0c23.45,14.64,61.42,14.64,84.83,0L760.85,489.71c23.41-14.64,23.41-38.39,0-53h0C737.44,422,699.43,422,676,436.69Z"/><path class="cls-56" d="M13.39,744.74c-23.45,14.66-23.45,38.38,0,53h0c23.41,14.66,61.42,14.63,84.83,0l458.12-286.3c23.45-14.63,23.41-38.36,0-53h0c-23.41-14.66-61.42-14.66-84.83,0Z"/><path class="cls-57" d="M29.78,628.42c-23.45,14.66-23.45,38.41,0,53h0c23.41,14.66,61.42,14.66,84.83,0l458.12-286.3c23.41-14.66,23.41-38.39,0-53h0c-23.41-14.66-61.38-14.66-84.8,0Z"/><path class="cls-58" d="M27.7,523.63c-23.41,14.66-23.41,38.39,0,53h0c23.45,14.66,61.42,14.66,84.83,0l458.12-286.3c23.41-14.63,23.45-38.38,0-53h0c-23.38-14.64-61.38-14.64-84.83,0Z"/><path class="cls-59" d="M-308.53,627.74c-23.41,14.66-23.41,38.38,0,53h0c23.41,14.66,61.42,14.63,84.83,0l458.12-286.3c23.45-14.66,23.41-38.39,0-53h0c-23.41-14.63-61.38-14.63-84.83,0Z"/><path class="cls-60" d="M-178.8,440.57c-23.41,14.66-23.41,38.38,0,53h0c23.41,14.66,61.42,14.66,84.83,0l458.12-286.3c23.41-14.66,23.41-38.39,0-53h0c-23.41-14.66-61.38-14.66-84.83,0Z"/><path class="cls-61" d="M-395.51,470c-23.45,14.63-23.45,38.36,0,53h0c23.45,14.66,61.42,14.66,84.83,0l458.12-286.3c23.45-14.63,23.45-38.36,0-53h0C124,169,86,169,62.58,183.67Z"/><path class="cls-62" d="M-416,376.7c-23.45,14.63-23.45,38.38,0,53h0c23.41,14.66,61.45,14.66,84.83,0L127,143.42c23.41-14.66,23.41-38.41,0-53h0c-23.41-14.66-61.42-14.66-84.83,0Z"/><path class="cls-63" d="M-396.53,258.47c-23.45,14.66-23.45,38.39,0,53h0c23.41,14.66,61.42,14.68,84.83,0L146.43,25.18c23.41-14.63,23.41-38.38,0-53h0C123-42.49,85-42.49,61.59-27.84Z"/><path class="cls-64" d="M-460.86,404.76c-23.45,14.66-61.42,14.64-84.83,0h0c-23.45-14.66-23.45-38.38,0-53L-87.61,65.41c23.41-14.63,61.42-14.63,84.83,0h0c23.45,14.61,23.45,38.36,0,53Z"/><path class="cls-65" d="M-307.62,521.1c-23.45,14.66-61.38,14.66-84.83,0h0c-23.45-14.64-23.45-38.39,0-53L65.64,181.76c23.45-14.63,61.42-14.63,84.83,0h0c23.45,14.64,23.45,38.37,0,53Z"/><path class="cls-66" d="M-375,669.29c-23.45,14.66-61.42,14.66-84.83,0h0c-23.45-14.63-23.45-38.38,0-53L-1.79,330c23.45-14.66,61.45-14.66,84.87,0h0c23.45,14.63,23.45,38.38,0,53Z"/><path class="cls-67" d="M-36.63,669.92c-23.41,14.66-61.38,14.66-84.8,0h0c-23.45-14.66-23.45-38.38,0-53L336.66,330.58c23.41-14.63,61.38-14.63,84.87,0h0c23.41,14.61,23.41,38.34,0,53Z"/><path class="cls-68" d="M-77.06,801.28c-23.41,14.63-61.42,14.63-84.83,0h0c-23.45-14.66-23.45-38.41,0-53l458-286.35c23.48-14.64,61.45-14.64,84.9,0h0c23.41,14.61,23.41,38.39,0,53Z"/><path class="cls-69" d="M68.66,816.24c-23.45,14.66-61.42,14.66-84.8,0h0c-23.49-14.66-23.45-38.41,0-53l458-286.32c23.45-14.64,61.42-14.64,84.87,0h0c23.41,14.61,23.45,38.34,0,53Z"/><path class="cls-70" d="M9.85,959.11c-23.48,14.64-61.45,14.64-84.87,0h0c-23.45-14.63-23.45-38.41,0-53L383.06,619.74c23.45-14.63,61.45-14.63,84.87,0h0c23.41,14.63,23.41,38.36,0,53Z"/><path class="cls-71" d="M575.72,499.35c-23.45,14.63-23.45,38.38,0,53h0c23.41,14.66,61.42,14.66,84.83,0l458.12-286.3c23.41-14.66,23.41-38.39,0-53h0c-23.38-14.63-61.38-14.66-84.83,0Z"/><path class="cls-72" d="M607.43,373.47c-23.41,14.64-23.41,38.39,0,53h0c23.41,14.66,61.42,14.64,84.83,0l458.12-286.32c23.41-14.64,23.41-38.36,0-53h0c-23.41-14.64-61.42-14.66-84.83,0Z"/><path class="cls-73" d="M458.16,360.68c-23.45,14.66-23.41,38.38,0,53h0c23.41,14.66,61.42,14.68,84.83,0L1001.11,127.4c23.41-14.64,23.41-38.39,0-53h0c-23.41-14.66-61.42-14.66-84.87,0Z"/><path class="cls-74" d="M459.21,254c-23.45,14.66-23.41,38.39,0,53h0c23.41,14.64,61.42,14.64,84.83,0L1002.16,20.7c23.41-14.66,23.41-38.38,0-53h0C978.75-47,940.75-47,917.33-32.34Z"/><path class="cls-75" d="M236.32,287.23c-23.45,14.64-23.45,38.39,0,53h0c23.41,14.66,61.42,14.66,84.83,0L779.27,53.95c23.41-14.66,23.41-38.41,0-53h0c-23.41-14.66-61.42-14.66-84.87,0Z"/><path class="cls-76" d="M335.5,119.14c-23.45,14.66-23.41,38.41,0,53h0c23.45,14.66,61.45,14.64,84.83,0L878.48-114.14c23.41-14.64,23.41-38.37,0-53h0c-23.38-14.65-61.42-14.65-84.83,0Z"/><path class="cls-77" d="M128.92,142.19c-23.45,14.66-23.45,38.39,0,53h0c23.45,14.66,61.42,14.66,84.83,0L671.87-91.09c23.45-14.64,23.45-38.39,0-53h0c-23.41-14.65-61.42-14.66-84.83,0Z"/><path class="cls-78" d="M98.3,55.26c-23.41,14.66-23.41,38.39,0,53h0c23.45,14.66,61.45,14.66,84.83,0L641.25-178c23.45-14.65,23.41-38.38,0-53h0c-23.41-14.66-61.38-14.66-84.83,0Z"/><path class="cls-79" d="M117.77-63c-23.45,14.64-23.45,38.4,0,53h0c23.41,14.66,61.42,14.66,84.83,0L660.73-296.22c23.41-14.67,23.41-38.4,0-53.05h0c-23.41-14.65-61.38-14.65-84.83,0Z"/><path class="cls-80" d="M-236-54c-23.45,14.66-23.45,38.39,0,53h0c23.41,14.66,61.42,14.64,84.83,0L306.95-287.28c23.41-14.64,23.41-38.37,0-53h0c-23.41-14.66-61.42-14.67-84.83,0Z"/><path class="cls-81" d="M392.8,83.34C369.35,98,331.38,98,308,83.34h0c-23.45-14.64-23.48-38.39,0-53L766-256c23.45-14.63,61.45-14.63,84.87,0h0c23.45,14.63,23.45,38.39,0,53Z"/><path class="cls-82" d="M836.44,124.23c-23.41,14.68-61.38,14.68-84.8,0h0c-23.45-14.66-23.45-38.38,0-53l458.08-286.32c23.41-14.64,61.42-14.63,84.87,0h0c23.41,14.63,23.41,38.38,0,53Z"/><path class="cls-83" d="M666.77,18.2c-23.45,14.63-61.45,14.63-84.87,0h0c-23.41-14.64-23.41-38.41,0-53L1040-321.16c23.48-14.63,61.45-14.63,84.87,0h0c23.45,14.63,23.45,38.37,0,53Z"/><path class="cls-84" d="M759.76,384.3c-23.45,14.66-23.45,38.38,0,53h0c23.45,14.66,61.42,14.66,84.83,0L1302.71,151c23.45-14.66,23.45-38.41,0-53h0c-23.41-14.64-61.42-14.66-84.83,0Z"/><path class="cls-85" d="M841.57,227.13c-23.45,14.66-23.45,38.38,0,53h0c23.41,14.66,61.38,14.66,84.83,0L1384.52-6.15c23.41-14.66,23.41-38.39,0-53h0c-23.45-14.65-61.42-14.65-84.87,0Z"/><path class="cls-86" d="M677.46,223.62c-23.41,14.63-23.41,38.38,0,53h0c23.45,14.66,61.45,14.66,84.87,0L1220.45-9.67c23.41-14.66,23.41-38.39,0-53h0c-23.41-14.66-61.38-14.67-84.83,0Z"/><path class="cls-87" d="M550.19,91c-23.45,14.66-23.45,38.38,0,53h0c23.41,14.64,61.42,14.66,84.83,0l458.12-286.31c23.41-14.66,23.41-38.4,0-53h0c-23.41-14.65-61.42-14.66-84.87,0Z"/><path class="cls-88" d="M1091,283.34c-23.41,14.66-61.42,14.66-84.83,0h0c-23.41-14.63-23.45-38.38,0-53L1464.26-56c23.45-14.63,61.45-14.62,84.86,0h0c23.44,14.64,23.44,38.37,0,53Z"/><rect class="cls-89" x="-7.21" y="-4.5" width="1454.41" height="909.01"/></g></g></g></g></svg>