<svg xmlns="http://www.w3.org/2000/svg" xmlns:xlink="http://www.w3.org/1999/xlink" viewBox="0 0 1440 900"><defs><style>.cls-1{fill:#f9fafa;}.cls-2{isolation:isolate;}.cls-3{clip-path:url(#clip-path);}.cls-4{fill:#f1f2f2;}.cls-5{mix-blend-mode:multiply;}.cls-6{fill:url(#linear-gradient);}.cls-7{fill:url(#linear-gradient-2);}.cls-8{fill:#fff229;}.cls-9{fill:url(#linear-gradient-3);}.cls-10{fill:url(#linear-gradient-4);}.cls-11{fill:url(#linear-gradient-5);}.cls-12{fill:url(#linear-gradient-6);}.cls-13{fill:url(#linear-gradient-7);}.cls-14{fill:url(#linear-gradient-8);}.cls-15{fill:url(#linear-gradient-9);}.cls-16{fill:url(#linear-gradient-10);}.cls-17{fill:url(#linear-gradient-11);}.cls-18{fill:url(#linear-gradient-12);}.cls-19{fill:url(#linear-gradient-13);}.cls-20{fill:url(#linear-gradient-14);}.cls-21{fill:url(#linear-gradient-15);}.cls-22{fill:url(#linear-gradient-16);}.cls-23{fill:url(#linear-gradient-17);}.cls-24{fill:url(#linear-gradient-18);}.cls-25{fill:url(#linear-gradient-19);}.cls-26{fill:url(#linear-gradient-20);}.cls-27{fill:url(#linear-gradient-21);}.cls-28{fill:url(#linear-gradient-22);}.cls-29{fill:url(#linear-gradient-23);}.cls-30{fill:url(#linear-gradient-24);}.cls-31{fill:url(#linear-gradient-25);}.cls-32{fill:url(#linear-gradient-26);}.cls-33{fill:url(#linear-gradient-27);}.cls-34{fill:url(#linear-gradient-28);}.cls-35{fill:url(#linear-gradient-29);}.cls-36{fill:url(#linear-gradient-30);}.cls-37{fill:url(#linear-gradient-31);}.cls-38{fill:url(#linear-gradient-32);}.cls-39{fill:url(#linear-gradient-33);}.cls-40{fill:url(#linear-gradient-34);}.cls-41{fill:#e6e7e8;}.cls-42{fill:url(#linear-gradient-35);}.cls-43{fill:url(#linear-gradient-36);}.cls-44{fill:url(#linear-gradient-37);}.cls-45{fill:url(#linear-gradient-38);}.cls-46{fill:url(#linear-gradient-39);}.cls-47{fill:url(#linear-gradient-40);}.cls-48{fill:url(#linear-gradient-41);}.cls-49{fill:url(#linear-gradient-42);}.cls-50{fill:url(#linear-gradient-43);}.cls-51{fill:url(#linear-gradient-44);}.cls-52{fill:url(#linear-gradient-45);}.cls-53{fill:url(#linear-gradient-46);}.cls-54{fill:url(#linear-gradient-47);}.cls-55{fill:url(#linear-gradient-48);}.cls-56{fill:url(#linear-gradient-49);}.cls-57{fill:url(#linear-gradient-50);}.cls-58{fill:url(#linear-gradient-51);}.cls-59{fill:url(#linear-gradient-52);}.cls-60{fill:url(#linear-gradient-53);}.cls-61{fill:url(#linear-gradient-54);}.cls-62{fill:url(#linear-gradient-55);}.cls-63{fill:url(#linear-gradient-56);}.cls-64{fill:url(#linear-gradient-57);}.cls-65{fill:url(#linear-gradient-58);}.cls-66{fill:url(#linear-gradient-59);}.cls-67{fill:url(#linear-gradient-60);}.cls-68{fill:url(#linear-gradient-61);}.cls-69{fill:#37d0fc;}.cls-70{fill:#bb1ae0;}</style><clipPath id="clip-path"><rect class="cls-1" width="1440" height="900"/></clipPath><linearGradient id="linear-gradient" x1="29.74" y1="866.76" x2="733.11" y2="866.76" gradientUnits="userSpaceOnUse"><stop offset="0" stop-color="#ff4ce0"/><stop offset="0.11" stop-color="#f14ee1"/><stop offset="0.31" stop-color="#cc52e2"/><stop offset="0.59" stop-color="#9058e5"/><stop offset="0.92" stop-color="#3f61e9"/><stop offset="1" stop-color="#2b63ea"/></linearGradient><linearGradient id="linear-gradient-2" x1="1094.63" y1="97.84" x2="1554.5" y2="97.84" gradientUnits="userSpaceOnUse"><stop offset="0" stop-color="#43e8ed"/><stop offset="0.45" stop-color="#349ff6"/><stop offset="0.82" stop-color="#2868fc"/><stop offset="1" stop-color="#2453ff"/></linearGradient><linearGradient id="linear-gradient-3" x1="86.31" y1="185.95" x2="321.72" y2="185.95" gradientUnits="userSpaceOnUse"><stop offset="0" stop-color="#2b63ea"/><stop offset="0.08" stop-color="#3f61e9"/><stop offset="0.41" stop-color="#9058e5"/><stop offset="0.69" stop-color="#cc52e2"/><stop offset="0.89" stop-color="#f14ee1"/><stop offset="1" stop-color="#ff4ce0"/></linearGradient><linearGradient id="linear-gradient-4" x1="620.54" y1="39.96" x2="922.68" y2="39.96" xlink:href="#linear-gradient-2"/><linearGradient id="linear-gradient-5" x1="1192.43" y1="256.74" x2="1494.56" y2="256.74" xlink:href="#linear-gradient"/><linearGradient id="linear-gradient-6" x1="838.09" y1="871.04" x2="1084.43" y2="871.04" xlink:href="#linear-gradient-2"/><linearGradient id="linear-gradient-7" x1="910.58" y1="894.9" x2="1088.26" y2="894.9" xlink:href="#linear-gradient-2"/><linearGradient id="linear-gradient-8" x1="784.16" y1="847.08" x2="1061.65" y2="847.08" xlink:href="#linear-gradient-2"/><linearGradient id="linear-gradient-9" x1="809.37" y1="859.15" x2="1075.11" y2="859.15" xlink:href="#linear-gradient-2"/><linearGradient id="linear-gradient-10" x1="701.51" y1="775.19" x2="914.27" y2="775.19" xlink:href="#linear-gradient-2"/><linearGradient id="linear-gradient-11" x1="871.31" y1="882.77" x2="1088.75" y2="882.77" xlink:href="#linear-gradient-2"/><linearGradient id="linear-gradient-12" x1="717.22" y1="750.36" x2="819.04" y2="750.36" xlink:href="#linear-gradient-2"/><linearGradient id="linear-gradient-13" x1="702.84" y1="762.92" x2="873.67" y2="762.92" xlink:href="#linear-gradient-2"/><linearGradient id="linear-gradient-14" x1="762.05" y1="835.04" x2="1045.23" y2="835.04" xlink:href="#linear-gradient-2"/><linearGradient id="linear-gradient-15" x1="705.02" y1="786.84" x2="948.02" y2="786.84" xlink:href="#linear-gradient-2"/><linearGradient id="linear-gradient-16" x1="962.16" y1="907.48" x2="1076.91" y2="907.48" xlink:href="#linear-gradient-2"/><linearGradient id="linear-gradient-17" x1="742.82" y1="822.86" x2="1025.47" y2="822.86" xlink:href="#linear-gradient-2"/><linearGradient id="linear-gradient-18" x1="726.75" y1="810.83" x2="1003.04" y2="810.83" xlink:href="#linear-gradient-2"/><linearGradient id="linear-gradient-19" x1="713.95" y1="798.75" x2="977.24" y2="798.75" xlink:href="#linear-gradient-2"/><linearGradient id="linear-gradient-20" x1="-108.49" y1="602.02" x2="333.21" y2="602.02" xlink:href="#linear-gradient-2"/><linearGradient id="linear-gradient-21" x1="1025.23" y1="97.38" x2="1226.74" y2="97.38" xlink:href="#linear-gradient"/><linearGradient id="linear-gradient-22" x1="1084.54" y1="116.9" x2="1229.91" y2="116.9" xlink:href="#linear-gradient"/><linearGradient id="linear-gradient-23" x1="981.07" y1="77.78" x2="1208.11" y2="77.78" xlink:href="#linear-gradient"/><linearGradient id="linear-gradient-24" x1="1001.74" y1="87.65" x2="1219.15" y2="87.65" xlink:href="#linear-gradient"/><linearGradient id="linear-gradient-25" x1="913.5" y1="18.96" x2="1087.52" y2="18.96" xlink:href="#linear-gradient"/><linearGradient id="linear-gradient-26" x1="1052.4" y1="106.97" x2="1230.29" y2="106.97" xlink:href="#linear-gradient"/><linearGradient id="linear-gradient-27" x1="926.33" y1="-1.36" x2="1009.65" y2="-1.36" xlink:href="#linear-gradient"/><linearGradient id="linear-gradient-28" x1="914.56" y1="8.92" x2="1054.34" y2="8.92" xlink:href="#linear-gradient"/><linearGradient id="linear-gradient-29" x1="963.04" y1="67.92" x2="1194.68" y2="67.92" xlink:href="#linear-gradient"/><linearGradient id="linear-gradient-30" x1="916.35" y1="28.49" x2="1115.16" y2="28.49" xlink:href="#linear-gradient"/><linearGradient id="linear-gradient-31" x1="1126.76" y1="127.18" x2="1220.63" y2="127.18" xlink:href="#linear-gradient"/><linearGradient id="linear-gradient-32" x1="947.32" y1="57.96" x2="1178.51" y2="57.96" xlink:href="#linear-gradient"/><linearGradient id="linear-gradient-33" x1="934.1" y1="48.12" x2="1160.19" y2="48.12" xlink:href="#linear-gradient"/><linearGradient id="linear-gradient-34" x1="923.66" y1="38.24" x2="1139.06" y2="38.24" xlink:href="#linear-gradient"/><linearGradient id="linear-gradient-35" x1="28.69" y1="430.93" x2="176.84" y2="430.93" gradientUnits="userSpaceOnUse"><stop offset="0" stop-color="#ff3c00"/><stop offset="0.16" stop-color="#ff510d"/><stop offset="0.49" stop-color="#ff882e"/><stop offset="0.97" stop-color="#ffdf62"/><stop offset="1" stop-color="#ffe666"/></linearGradient><linearGradient id="linear-gradient-36" x1="72.28" y1="445.29" x2="179.12" y2="445.29" xlink:href="#linear-gradient-35"/><linearGradient id="linear-gradient-37" x1="-3.73" y1="416.53" x2="163.12" y2="416.53" xlink:href="#linear-gradient-35"/><linearGradient id="linear-gradient-38" x1="11.43" y1="423.79" x2="171.21" y2="423.79" xlink:href="#linear-gradient-35"/><linearGradient id="linear-gradient-39" x1="-53.44" y1="373.3" x2="74.49" y2="373.3" xlink:href="#linear-gradient-35"/><linearGradient id="linear-gradient-40" x1="48.66" y1="437.99" x2="179.4" y2="437.99" xlink:href="#linear-gradient-35"/><linearGradient id="linear-gradient-41" x1="-43.98" y1="358.35" x2="17.23" y2="358.35" xlink:href="#linear-gradient-35"/><linearGradient id="linear-gradient-42" x1="-52.63" y1="365.91" x2="50.1" y2="365.91" xlink:href="#linear-gradient-35"/><linearGradient id="linear-gradient-43" x1="-17.01" y1="409.28" x2="153.25" y2="409.28" xlink:href="#linear-gradient-35"/><linearGradient id="linear-gradient-44" x1="-51.33" y1="380.3" x2="94.82" y2="380.3" xlink:href="#linear-gradient-35"/><linearGradient id="linear-gradient-45" x1="103.29" y1="452.84" x2="172.34" y2="452.84" xlink:href="#linear-gradient-35"/><linearGradient id="linear-gradient-46" x1="-28.58" y1="401.96" x2="141.36" y2="401.96" xlink:href="#linear-gradient-35"/><linearGradient id="linear-gradient-47" x1="-38.28" y1="394.72" x2="127.9" y2="394.72" xlink:href="#linear-gradient-35"/><linearGradient id="linear-gradient-48" x1="-45.95" y1="387.47" x2="112.36" y2="387.47" xlink:href="#linear-gradient-35"/><linearGradient id="linear-gradient-49" x1="741.62" y1="600.3" x2="915.62" y2="419.97" xlink:href="#linear-gradient"/><linearGradient id="linear-gradient-50" x1="598.62" y1="452.3" x2="772.62" y2="271.97" xlink:href="#linear-gradient"/><linearGradient id="linear-gradient-51" x1="757.72" y1="116.89" x2="972.07" y2="116.89" xlink:href="#linear-gradient-35"/><linearGradient id="linear-gradient-52" x1="192.26" y1="110.14" x2="348.59" y2="-51.87" xlink:href="#linear-gradient"/><linearGradient id="linear-gradient-53" x1="248.86" y1="739.11" x2="405.17" y2="577.12" xlink:href="#linear-gradient"/><linearGradient id="linear-gradient-54" x1="373.41" y1="351.8" x2="529.72" y2="189.81" xlink:href="#linear-gradient-2"/><linearGradient id="linear-gradient-55" x1="-45.91" y1="786.79" x2="135.49" y2="786.79" xlink:href="#linear-gradient-35"/><linearGradient id="linear-gradient-56" x1="1074.83" y1="450.18" x2="1348.49" y2="166.56" xlink:href="#linear-gradient"/><linearGradient id="linear-gradient-57" x1="1168.83" y1="721.18" x2="1442.49" y2="437.56" xlink:href="#linear-gradient"/><linearGradient id="linear-gradient-58" x1="1348.74" y1="805.13" x2="1622.41" y2="521.51" gradientUnits="userSpaceOnUse"><stop offset="0" stop-color="#ffe666"/><stop offset="0.03" stop-color="#ffdf62"/><stop offset="0.51" stop-color="#ff882e"/><stop offset="0.84" stop-color="#ff510d"/><stop offset="1" stop-color="#ff3c00"/></linearGradient><linearGradient id="linear-gradient-59" x1="119.31" y1="407.08" x2="464.63" y2="407.08" gradientTransform="matrix(0.8, 0.2, 0.2, 0.8, 52.5, -52.5)" gradientUnits="userSpaceOnUse"><stop offset="0" stop-color="#37d0fc"/><stop offset="1" stop-color="#bb1ae0"/></linearGradient><linearGradient id="linear-gradient-60" x1="1089.35" y1="530.38" x2="1270.76" y2="530.38" xlink:href="#linear-gradient-35"/><linearGradient id="linear-gradient-61" x1="989.7" y1="523.01" x2="1335.06" y2="523.01" gradientTransform="matrix(0.8, 0.2, 0.2, 0.8, 52.5, -52.5)" xlink:href="#linear-gradient-2"/></defs><title>画板 1</title><g class="cls-2"><g id="图层_1" data-name="图层 1"><g id="Cover_1"><rect class="cls-1" width="1440" height="900"/><g class="cls-3"><path class="cls-4" d="M1147.11,505.56c4.18.8,8.47,1.46,12.76,2L1343.5,392.83a66.51,66.51,0,0,0-3.27-8Z"/><path class="cls-4" d="M1344,432.6a61.56,61.56,0,0,0,2.57-11.61L1204.91,509.5c6.22-.31,12.45-.81,18.56-1.6Z"/><path class="cls-4" d="M1104.12,492.32c3.2,1.42,6.47,2.69,9.77,3.93l211.43-132.17c-2-2.07-4-4.1-6.26-6.08Z"/><path class="cls-4" d="M1124.23,499.81c3.62,1.12,7.28,2.21,11,3.14l200.85-125.51c-1.51-2.34-3.27-4.63-5.06-6.89Z"/><path class="cls-4" d="M1039,422.82l168.82-105.53c-5.06-.32-10.16-.47-15.26-.47l-154.33,96.45A62.33,62.33,0,0,0,1039,422.82Z"/><path class="cls-4" d="M1173.59,509c5,.39,9.91.62,14.91.71l158.45-99a63.89,63.89,0,0,0-1.13-9.29Z"/><path class="cls-4" d="M1132,324.65c-17.61,4.7-34.1,11.47-48.48,20.43s-25.17,19.3-32.73,30.3Z"/><path class="cls-4" d="M1042.84,390.34a65.85,65.85,0,0,0-3.55,12.25l136.2-85.12c-6.57.46-13.08,1.23-19.55,2.22Z"/><path class="cls-4" d="M1086.5,483.3c2.74,1.65,5.52,3.28,8.4,4.77l217.34-135.84c-2.39-1.8-5-3.53-7.59-5.25Z"/><path class="cls-4" d="M1041,431.58a66.25,66.25,0,0,0,3.13,8.06L1234.76,320.5c-4.25-.76-8.58-1.43-12.9-1.94Z"/><path class="cls-4" d="M1246,503.85c20.35-4.67,39.51-12,55.86-22.26s28.13-22.19,35.61-34.91Z"/><path class="cls-4" d="M1071.21,472.83c2.32,1.85,4.82,3.65,7.38,5.41L1296.49,342c-2.78-1.62-5.66-3.19-8.65-4.64Z"/><path class="cls-4" d="M1058.34,460.83c1.9,2.09,3.87,4.19,6,6.24l214.24-133.9c-3.27-1.37-6.61-2.58-10-3.78Z"/><path class="cls-4" d="M1048.15,447.15a70.86,70.86,0,0,0,4.78,7L1258.07,326q-5.54-1.63-11.28-3Z"/><g class="cls-5"><path class="cls-4" d="M483,91.52c3,.56,5.91,1,8.93,1.43L620.44,12.63a44.1,44.1,0,0,0-2.29-5.56Z"/><path class="cls-4" d="M620.79,40.47a44.52,44.52,0,0,0,1.83-8.13L523.48,94.27c4.36-.21,8.72-.56,13-1.11Z"/><path class="cls-4" d="M453,82.25c2.25,1,4.54,1.88,6.82,2.76l148-92.48c-1.37-1.44-2.81-2.87-4.39-4.26Z"/><path class="cls-4" d="M467,87.5c2.5.78,5.1,1.55,7.7,2.2L615.27,1.88a58.83,58.83,0,0,0-3.55-4.82Z"/><path class="cls-4" d="M407.39,33.63,525.55-40.21c-3.59-.23-7.14-.34-10.72-.33l-108,67.48A42.87,42.87,0,0,0,407.39,33.63Z"/><path class="cls-4" d="M501.57,94c3.48.26,6.93.44,10.44.5l110.85-69.3a45.46,45.46,0,0,0-.81-6.51Z"/><path class="cls-4" d="M472.43-35.07a125,125,0,0,0-33.89,14.31c-10.06,6.28-17.65,13.5-22.92,21.2Z"/><path class="cls-4" d="M410.1,10.91a44.94,44.94,0,0,0-2.5,8.57l95.31-59.56c-4.61.32-9.18.86-13.71,1.54Z"/><path class="cls-4" d="M440.65,75.95c1.9,1.14,3.83,2.28,5.87,3.33l152-95c-1.65-1.27-3.48-2.48-5.31-3.69Z"/><path class="cls-4" d="M408.83,39.75A50.7,50.7,0,0,0,411,45.4L544.36-38c-3-.53-6-1-9-1.35Z"/><path class="cls-4" d="M552.27,90.33c14.24-3.27,27.63-8.43,39.09-15.58s19.69-15.52,24.93-24.43Z"/><path class="cls-4" d="M429.93,68.62c1.62,1.28,3.37,2.55,5.17,3.78L587.57-22.9c-1.93-1.12-4-2.22-6-3.24Z"/><path class="cls-4" d="M420.93,60.22c1.33,1.46,2.71,2.93,4.25,4.37L575.09-29.1c-2.28-1-4.64-1.8-7-2.65Z"/><path class="cls-4" d="M413.79,50.65a49.06,49.06,0,0,0,3.34,4.93l143.54-89.7c-2.6-.77-5.2-1.47-7.88-2.09Z"/></g><polygon class="cls-6" points="29.74 1083.59 34.52 1086.56 733.11 649.95 728.37 646.96 29.74 1083.59"/><polygon class="cls-7" points="1094.63 238.8 1099.02 241.56 1554.5 -43.13 1550.11 -45.88 1094.63 238.8"/><polygon class="cls-8" points="498.02 828.17 501.75 830.49 661.15 730.87 657.46 728.56 498.02 828.17"/><polygon class="cls-9" points="321.72 115.97 315.99 112.39 86.31 255.93 92.04 259.52 321.72 115.97"/><polygon class="cls-10" points="620.54 131.42 625.29 134.38 922.67 -51.49 917.96 -54.46 620.54 131.42"/><polygon class="cls-11" points="1192.43 348.2 1197.14 351.17 1494.56 165.29 1489.85 162.32 1192.43 348.2"/><path class="cls-12" d="M838.09,945.46c5.27,1,10.62,1.82,16,2.55l230.35-144a87.17,87.17,0,0,0-4.11-10Z"/><path class="cls-13" d="M1085,853.95a79.19,79.19,0,0,0,3.23-14.57L910.58,950.43c7.84-.38,15.61-1,23.31-2Z"/><path class="cls-14" d="M784.16,928.87c4,1.75,8.09,3.37,12.2,4.92L1061.65,768c-2.49-2.59-5.06-5.14-7.87-7.64Z"/><path class="cls-15" d="M809.37,938.26c4.57,1.41,9.14,2.77,13.78,3.93l252-157.43c-1.9-2.93-4.11-5.79-6.33-8.63Z"/><path class="cls-16" d="M702.46,841.67,914.27,709.3c-6.36-.39-12.8-.6-19.19-.59l-193.57,121A80.65,80.65,0,0,0,702.46,841.67Z"/><path class="cls-17" d="M871.31,949.83c6.19.48,12.44.78,18.67.89L1088.75,826.5a82.09,82.09,0,0,0-1.41-11.68Z"/><path class="cls-18" d="M819,718.53c-22.08,5.89-42.75,14.37-60.79,25.64s-31.57,24.2-41,38Z"/><path class="cls-19" d="M707.27,800.95a82.22,82.22,0,0,0-4.43,15.36L873.67,709.53c-8.26.58-16.42,1.55-24.57,2.78Z"/><path class="cls-20" d="M762,917.56c3.45,2.05,6.93,4.11,10.55,6l272.64-170.4c-3-2.26-6.26-4.42-9.56-6.59Z"/><path class="cls-21" d="M705,852.66a81.67,81.67,0,0,0,3.87,10.13L948,713.32c-5.34-.94-10.72-1.79-16.2-2.44Z"/><path class="cls-22" d="M962.16,943.33c25.56-5.87,49.57-15.1,70.1-27.93s35.3-27.83,44.65-43.78Z"/><path class="cls-23" d="M742.82,904.43c3,2.32,6.08,4.56,9.32,6.76l273.34-170.84c-3.52-2-7.14-4-10.79-5.81Z"/><path class="cls-24" d="M726.75,889.34c2.39,2.64,4.85,5.27,7.59,7.83l268.7-168c-4.08-1.71-8.3-3.24-12.52-4.73Z"/><path class="cls-25" d="M714,872.2a94.78,94.78,0,0,0,5.94,8.83L977.24,720.2c-4.64-1.34-9.31-2.62-14.1-3.74Z"/><polygon class="cls-26" points="-108.49 737.83 -104.91 740.06 333.21 466.2 329.7 463.99 -108.49 737.83"/><polygon class="cls-8" points="137.46 188.19 133.88 185.96 -42.96 296.51 -39.45 298.72 137.46 188.19"/><path class="cls-27" d="M1025.23,158.26c4.29.82,8.69,1.5,13.08,2.1L1226.74,42.57a63.46,63.46,0,0,0-3.34-8.16Z"/><path class="cls-28" d="M1227.27,83.39a67.63,67.63,0,0,0,2.64-11.91l-145.37,90.85c6.4-.32,12.76-.85,19.06-1.65Z"/><path class="cls-29" d="M981.07,144.69c3.3,1.44,6.65,2.77,10,4l217-135.64q-3-3.18-6.43-6.25Z"/><path class="cls-30" d="M1001.74,152.37c3.69,1.14,7.45,2.26,11.29,3.22l206.12-128.8a87.14,87.14,0,0,0-5.2-7.06Z"/><path class="cls-31" d="M914.27,73.36l173.25-108.3c-5.2-.33-10.41-.49-15.68-.48l-158.34,99A65.84,65.84,0,0,0,914.27,73.36Z"/><path class="cls-32" d="M1052.4,161.84q7.59.59,15.29.72l162.6-101.63a63.4,63.4,0,0,0-1.16-9.55Z"/><path class="cls-33" d="M1009.65-27.4c-18.07,4.82-35,11.77-49.75,21s-25.84,19.8-33.57,31.09Z"/><path class="cls-34" d="M918.21,40a68.85,68.85,0,0,0-3.66,12.56l139.78-87.35c-6.75.48-13.43,1.26-20.07,2.27Z"/><path class="cls-35" d="M963,135.43c2.78,1.68,5.63,3.36,8.61,4.89L1194.68.92c-2.46-1.86-5.13-3.63-7.8-5.41Z"/><path class="cls-36" d="M916.35,82.33a64.2,64.2,0,0,0,3.2,8.29L1115.16-31.65c-4.36-.77-8.79-1.46-13.22-2Z"/><path class="cls-37" d="M1126.76,156.51c20.88-4.79,40.53-12.34,57.31-22.83s28.9-22.78,36.56-35.84Z"/><path class="cls-38" d="M947.32,124.7c2.39,1.89,4.92,3.71,7.59,5.53L1178.51-9.55c-2.85-1.65-5.8-3.26-8.86-4.76Z"/><path class="cls-39" d="M934.1,112.36c2,2.15,4,4.32,6.22,6.41L1160.19-18.66c-3.34-1.41-6.79-2.65-10.23-3.87Z"/><path class="cls-40" d="M923.66,98.33a76.27,76.27,0,0,0,4.89,7.23L1139.06-26c-3.8-1.11-7.63-2.14-11.53-3.05Z"/><g class="cls-5"><path class="cls-41" d="M113.52,810.2c5.62,1.07,11.32,1.94,17,2.72l245.78-153.6A92.85,92.85,0,0,0,372,648.65Z"/><path class="cls-41" d="M377,712.55A83.49,83.49,0,0,0,380.46,697L190.86,815.47c8.37-.41,16.66-1.08,24.86-2.14Z"/><path class="cls-41" d="M56,792.48c4.29,1.9,8.65,3.6,13.08,5.27l283-176.9c-2.64-2.76-5.41-5.47-8.4-8.14Z"/><path class="cls-41" d="M82.9,802.51c4.82,1.49,9.74,3,14.73,4.21l268.77-168a104,104,0,0,0-6.75-9.22Z"/><path class="cls-41" d="M-31.18,699.47l226-141.25c-6.82-.43-13.61-.64-20.46-.64L-32.17,686.67A82.81,82.81,0,0,0-31.18,699.47Z"/><path class="cls-41" d="M149,814.86q9.91.77,19.93,1L381,683.25a88.39,88.39,0,0,0-1.48-12.45Z"/><path class="cls-41" d="M93.23,568.06c-23.55,6.29-45.63,15.35-64.9,27.37S-5.34,621.23-15.43,636Z"/><path class="cls-41" d="M-26,656a88.27,88.27,0,0,0-4.78,16.39L151.52,558.48c-8.86.6-17.54,1.63-26.23,3Z"/><path class="cls-41" d="M32.41,780.4c3.66,2.2,7.35,4.39,11.25,6.38L334.51,605c-3.2-2.42-6.64-4.71-10.16-7Z"/><path class="cls-41" d="M-28.48,711.19A93.11,93.11,0,0,0-24.33,722L230.84,562.52c-5.7-1-11.46-1.91-17.3-2.6Z"/><path class="cls-41" d="M246,807.92c27.24-6.25,52.84-16.12,74.74-29.79s37.65-29.71,47.67-46.74Z"/><path class="cls-41" d="M11.92,766.4c3.13,2.47,6.43,4.87,9.88,7.24L313.45,591.35c-3.73-2.15-7.59-4.26-11.57-6.2Z"/><path class="cls-41" d="M-5.27,750.33c2.53,2.79,5.17,5.6,8.09,8.35L289.55,579.47c-4.36-1.83-8.86-3.45-13.36-5Z"/><path class="cls-41" d="M-18.92,732a101.77,101.77,0,0,0,6.36,9.45L262,569.86q-7.44-2.19-15.08-4Z"/></g><path class="cls-42" d="M28.69,475.69c3.16.62,6.4,1.1,9.63,1.54l138.52-86.57a51.73,51.73,0,0,0-2.5-6Z"/><path class="cls-43" d="M177.19,420.64a45.28,45.28,0,0,0,1.93-8.74L72.28,478.67c4.71-.24,9.39-.63,14-1.21Z"/><path class="cls-44" d="M-3.73,465.71c2.39,1.06,4.85,2,7.35,3L163.12,369c-1.48-1.56-3-3.1-4.71-4.59Z"/><path class="cls-45" d="M11.43,471.35c2.71.85,5.52,1.67,8.3,2.37l151.49-94.67a59.72,59.72,0,0,0-3.8-5.2Z"/><path class="cls-46" d="M-52.88,413.28,74.49,333.67c-3.83-.23-7.66-.36-11.53-.35l-116.4,72.75A49.93,49.93,0,0,0-52.88,413.28Z"/><path class="cls-47" d="M48.66,478.32c3.73.29,7.49.46,11.25.53l119.5-74.71a43.18,43.18,0,0,0-.84-7Z"/><path class="cls-48" d="M17.23,339.21a135.43,135.43,0,0,0-36.56,15.43c-10.83,6.77-19,14.56-24.64,22.85Z"/><path class="cls-49" d="M-50,388.78A47.14,47.14,0,0,0-52.63,398L50.1,333.81c-5,.35-9.88.93-14.77,1.67Z"/><path class="cls-50" d="M-17,458.91c2,1.22,4.15,2.46,6.33,3.59L153.25,360c-1.79-1.36-3.76-2.66-5.73-4Z"/><path class="cls-51" d="M-51.33,419.88A59.59,59.59,0,0,0-49,426L94.82,336.09c-3.23-.57-6.47-1.08-9.74-1.46Z"/><path class="cls-52" d="M103.29,474.4c15.36-3.53,29.81-9.06,42.19-16.79s21.2-16.73,26.86-26.34Z"/><path class="cls-53" d="M-28.58,451c1.79,1.4,3.62,2.72,5.59,4.06L141.36,352.34c-2.11-1.21-4.25-2.41-6.5-3.49Z"/><path class="cls-54" d="M-38.28,441.95c1.48,1.58,2.92,3.18,4.57,4.7l161.61-101c-2.46-1-5-2-7.52-2.86Z"/><path class="cls-55" d="M-46,431.63a60.68,60.68,0,0,0,3.59,5.32l154.72-96.72c-2.78-.81-5.59-1.57-8.47-2.24Z"/><polygon class="cls-56" points="942.31 453.9 728 590.65 728 552.81 942.31 418.96 942.31 453.9"/><polygon class="cls-57" points="799.31 305.9 585 442.65 585 404.81 799.31 270.96 799.31 305.9"/><polygon class="cls-58" points="972.07 66 757.72 202.74 757.72 164.9 972.07 31.05 972.07 66"/><polygon class="cls-59" points="185.94 55.39 185.94 107.17 367.35 -10.01 367.35 -57.82 185.94 55.39"/><polygon class="cls-60" points="242.54 684.37 242.54 736.15 423.91 618.97 423.91 571.16 242.54 684.37"/><polygon class="cls-61" points="367.1 297.06 367.1 348.84 548.47 231.66 548.47 183.84 367.1 297.06"/><polygon class="cls-62" points="-45.91 817.5 -45.91 869.29 135.49 752.1 135.49 704.29 -45.91 817.5"/><polygon class="cls-63" points="1396.83 171.09 1049.63 388.08 1044.46 426.36 1393.28 208.37 1396.83 171.09"/><polygon class="cls-64" points="1490.83 442.09 1143.63 659.08 1138.46 697.36 1487.28 479.37 1490.83 442.09"/><polygon class="cls-65" points="1670.73 526.03 1323.56 743.02 1318.36 781.29 1667.18 563.31 1670.73 526.03"/><polygon class="cls-66" points="253.05 399.46 259.17 403.24 481.08 264.55 475.03 260.75 253.05 399.46"/><polygon class="cls-67" points="1089.35 561.09 1089.35 612.87 1270.76 495.68 1270.76 447.88 1089.35 561.09"/><polygon class="cls-68" points="975.34 663.49 981.46 667.28 1203.4 528.57 1197.32 524.77 975.34 663.49"/><path class="cls-69" d="M303.22,830.62c7.52,4.71,7.52,12.37,0,17.08s-19.79,4.71-27.35,0-7.56-12.37,0-17.08S295.66,825.9,303.22,830.62Z"/><path class="cls-70" d="M47.18,91.26c14.06,8.79,14.06,23,0,31.83s-36.84,8.77-50.91,0-14.06-23,0-31.83S33.15,82.47,47.18,91.26Z"/><path class="cls-69" d="M871.07,250.44c14,8.79,14,23,0,31.82s-36.88,8.78-50.91,0-14.06-23,0-31.82S857,241.66,871.07,250.44Z"/><path class="cls-8" d="M538.77,47c8.4,5.28,8.4,13.83,0,19.11s-22.15,5.26-30.55,0-8.44-13.82,0-19.11S530.33,41.73,538.77,47Z"/><path class="cls-8" d="M1358.75,592.48c8.44,5.27,8.44,13.82,0,19.09s-22.11,5.26-30.55,0-8.44-13.82,0-19.09S1350.35,587.21,1358.75,592.48Z"/><path class="cls-69" d="M1258.28,821.33c6.72,4.22,6.72,11.06,0,15.28s-17.72,4.21-24.43,0-6.75-11.06,0-15.28S1251.53,817.11,1258.28,821.33Z"/><path class="cls-8" d="M585.28,577.51c6.72,4.22,6.72,11.07,0,15.28s-17.72,4.21-24.47,0-6.75-11.06,0-15.28S578.53,573.29,585.28,577.51Z"/><path class="cls-70" d="M930.94,575.79c11.25,7,11.25,18.44,0,25.46s-29.5,7-40.71,0-11.25-18.42,0-25.46S919.72,568.76,930.94,575.79Z"/></g></g></g></g></svg>