<svg xmlns="http://www.w3.org/2000/svg" width="500" height="500" viewBox="0 0 500 500">
  <metadata><?xpacket begin="﻿" id="W5M0MpCehiHzreSzNTczkc9d"?>
<x:xmpmeta xmlns:x="adobe:ns:meta/" x:xmptk="Adobe XMP Core 5.6-c138 79.159824, 2016/09/14-01:09:01        ">
   <rdf:RDF xmlns:rdf="http://www.w3.org/1999/02/22-rdf-syntax-ns#">
      <rdf:Description rdf:about=""/>
   </rdf:RDF>
</x:xmpmeta>
                                                                                                    
                                                                                                    
                                                                                                    
                                                                                                    
                                                                                                    
                                                                                                    
                                                                                                    
                                                                                                    
                                                                                                    
                                                                                                    
                                                                                                    
                                                                                                    
                                                                                                    
                                                                                                    
                                                                                                    
                                                                                                    
                                                                                                    
                                                                                                    
                                                                                                    
                                                                                                    
                           
<?xpacket end="w"?></metadata>
<defs>
    <style>
      .cls-1 {
        stroke: #000;
        stroke-width: 1px;
        fill-rule: evenodd;
      }

      .cls-2, .cls-4 {
        font-size: 48px;
        text-anchor: middle;
      }

      .cls-2 {
        font-family: "Adobe Heiti Std";
      }

      .cls-3 {
        font-size: 60px;
      }

      .cls-4 {
        font-family: DengXian;
        font-weight: 700;
      }
    </style>
  </defs>
  <g id="画板_1" data-name="画板 1">
    <path id="耳朵左" class="cls-1" d="M157,242l-12-10-7-13-3-12,1-13,3-9,5-7,10-6,6-3h10l10,2,6,4,5,7,3,5-2,7-7,7-10,13-7,10-3,10-4,9Z"/>
    <path id="形状_1" data-name="形状 1" class="cls-1" d="M308,189l4-4,6-4,9-2h10s4.359,2.656,6,3a57.075,57.075,0,0,1,7,3l3,2,4,4,2,4,3,7,2,6v9l-1,8-2,5-4,7-4,4-7,3-5,3-4-1-6-13-4-9-4-11-9-12-8-8Z"/>
    <path id="形状_2" data-name="形状 2" class="cls-1" d="M158,242l-6,12-4,11-3,9v7l-9,9-8,5-1,5v11l1,59H372V329l-24-44-3-12-1-9-2-11-2-6h-3l3,10,1,9v3l1,12v9l1,10-1,8-1,8-2,7-4,3-5,5-4,5-7,5-7,4-6,1-7,3-9,3-8,2-10,2H261l-10,1h-9l-7,2h-6l-7-1-9-2-6-3-7-2-9-4-9-5-7-5-8-6-6-6-5-6-4-8-3-7-2-7,1-7,1-9,1-6,2-8,2-7,3-6,3-7,1-5h-3Z"/>
    <path id="形状_3" data-name="形状 3" class="cls-1" d="M194,189l7-3,8-2,7-1,7-2,9-3h6l6-1h11l10,1,9,2,9,3,9,3,5,2,8,5,3-2-8-5-7-3-9-3-7-2-7-2-7-1-9-1-9-1-12,1-6,1-8,2-7,2-6,1-8,1-4,2-2,1Z"/>
    <text id="图片居然找不到了_" data-name="图片居然找不到了。" class="cls-2" x="268" y="143">图片居然找不到了<tspan class="cls-3">。</tspan></text>
    <text id="没脸见人" class="cls-4" x="253.914" y="421.063">没脸见人</text>
  </g>
</svg>
